<svg width="24" height="24" viewBox="0 0 24 24" fill="none" xmlns="http://www.w3.org/2000/svg">
<path d="M21.4038 4.61914H3.65702C2.50025 4.61914 1.5625 5.66028 1.5625 6.94458V18.6725C1.5625 19.9568 2.50025 20.9979 3.65702 20.9979H21.4038C22.5606 20.9979 23.4983 19.9568 23.4983 18.6725V6.94458C23.4983 5.66028 22.5606 4.61914 21.4038 4.61914Z" fill="#2E3436" fill-opacity="0.27451"/>
<path d="M20.6655 3.88184H2.91874C1.76197 3.88184 0.824219 4.92297 0.824219 6.20728V17.9352C0.824219 19.2195 1.76197 20.2606 2.91874 20.2606H20.6655C21.8223 20.2606 22.7601 19.2195 22.7601 17.9352V6.20728C22.7601 4.92297 21.8223 3.88184 20.6655 3.88184Z" fill="#A40000"/>
<path d="M20.4446 4.70312H3.14011C2.35512 4.70312 1.71875 5.38808 1.71875 6.23302V17.9105C1.71875 18.7554 2.35512 19.4404 3.14011 19.4404H20.4446C21.2296 19.4404 21.8659 18.7554 21.8659 17.9105V6.23302C21.8659 5.38808 21.2296 4.70312 20.4446 4.70312Z" fill="url(#paint0_linear_167_267452)"/>
<path d="M3.28682 6.17174C3.0662 6.19901 2.89331 6.37511 2.89258 6.58824L2.9065 17.4706C2.9056 17.4861 2.90563 17.5025 2.90656 17.518C2.90403 17.5438 2.90406 17.5659 2.90666 17.5917C2.90664 17.5943 2.90664 17.5996 2.90667 17.6022C2.90904 17.6127 2.91478 17.6236 2.91799 17.6338C2.91797 17.6364 2.91797 17.6365 2.918 17.6391C2.92036 17.6495 2.92047 17.6604 2.92368 17.6706C2.92366 17.6732 2.92366 17.6786 2.92369 17.6812C2.92879 17.6917 2.93464 17.7026 2.94065 17.7127C2.94063 17.7153 2.94063 17.7154 2.94066 17.718C2.94848 17.7287 2.96006 17.7396 2.9689 17.7496C2.96887 17.7521 2.96887 17.7522 2.9689 17.7548C2.974 17.7654 2.97985 17.7763 2.98586 17.7864C2.98584 17.789 2.98585 17.7943 2.98587 17.7969C2.99659 17.8051 3.00826 17.8107 3.01974 17.8179C3.01972 17.8205 3.01972 17.8259 3.01975 17.8284C3.02775 17.8365 3.03369 17.842 3.04234 17.8495C3.04508 17.8521 3.05082 17.8574 3.05363 17.86C3.06163 17.868 3.06757 17.8736 3.07622 17.881C3.07899 17.881 3.07908 17.881 3.08186 17.881C3.10248 17.8984 3.1259 17.9147 3.14959 17.9283C3.15237 17.9283 3.1581 17.9283 3.16087 17.9283C3.17173 17.9339 3.1834 17.9393 3.19473 17.944C3.1975 17.944 3.19759 17.944 3.20037 17.944C3.21124 17.9496 3.2229 17.955 3.23423 17.9598C3.2507 17.9632 3.26821 17.9633 3.28499 17.9649C3.31241 17.9699 3.34167 17.9752 3.3696 17.9754L3.41471 17.9753L7.58234 17.9587C8.77364 17.9565 9.57155 17.9362 10.0467 17.8761C10.0495 17.8761 10.0552 17.8761 10.058 17.8761C10.5128 17.8129 10.9945 17.6965 11.5182 17.5265C12.4287 17.2418 13.2361 16.8212 13.9303 16.2594C14.61 15.7151 15.1368 15.0708 15.507 14.3459C15.8772 13.6211 16.0638 12.8547 16.0624 12.0602C16.0604 10.9543 15.7259 9.91867 15.0546 8.98701C14.3833 8.0553 13.4669 7.34179 12.3392 6.86925C11.1928 6.38322 9.69803 6.16176 7.84359 6.16508L3.34321 6.17166C3.32387 6.17176 3.30551 6.16942 3.28682 6.17174ZM5.70906 8.41101L7.64908 8.40817C8.55573 8.40657 9.20076 8.4341 9.56663 8.48434C9.93753 8.5353 10.3437 8.64282 10.7739 8.809C11.2003 8.97145 11.572 9.17042 11.8913 9.41808C11.8913 9.42067 11.8913 9.42602 11.8914 9.42861C12.77 10.1012 13.1842 10.9097 13.1861 11.9802C13.188 13.0762 12.7877 13.93 11.9319 14.646C11.6686 14.8633 11.3758 15.0476 11.0528 15.2001C10.7475 15.3423 10.3493 15.4648 9.8464 15.5704C9.37214 15.6653 8.65214 15.7192 7.71483 15.7209L5.71842 15.7238L5.70906 8.41101Z" fill="#EEEEEC"/>
<path d="M19.3526 9.97823C19.3527 10.3597 19.2708 10.7374 19.1116 11.0899C18.9524 11.4423 18.719 11.7626 18.4248 12.0323C18.1306 12.3021 17.7812 12.5161 17.3968 12.6621C17.0123 12.8081 16.6003 12.8832 16.1841 12.8832C15.768 12.8832 15.3559 12.8081 14.9715 12.6621C14.587 12.5161 14.2377 12.3021 13.9435 12.0323C13.6492 11.7626 13.4158 11.4423 13.2566 11.0899C13.0974 10.7374 13.0155 10.3597 13.0156 9.97823C13.0155 9.59677 13.0974 9.21903 13.2566 8.86658C13.4158 8.51413 13.6492 8.19389 13.9435 7.92413C14.2377 7.65437 14.587 7.44038 14.9715 7.29438C15.3559 7.14839 15.768 7.07324 16.1841 7.07324C16.6003 7.07324 17.0123 7.14839 17.3968 7.29438C17.7812 7.44038 18.1306 7.65437 18.4248 7.92413C18.719 8.19389 18.9524 8.51413 19.1116 8.86658C19.2708 9.21903 19.3527 9.59677 19.3526 9.97823Z" fill="#EEEEEC"/>
<path d="M20.6201 4.20996H2.96237C1.97458 4.20996 1.17383 5.10041 1.17383 6.19883V17.9417C1.17383 19.0401 1.97458 19.9305 2.96237 19.9305H20.6201C21.6079 19.9305 22.4086 19.0401 22.4086 17.9417V6.19883C22.4086 5.10041 21.6079 4.20996 20.6201 4.20996Z" stroke="url(#paint1_linear_167_267452)" stroke-width="0.366483" stroke-linecap="round" stroke-linejoin="round"/>
<path d="M20.6655 3.88184H2.91874C1.76197 3.88184 0.824219 4.92297 0.824219 6.20728V17.9352C0.824219 19.2195 1.76197 20.2606 2.91874 20.2606H20.6655C21.8223 20.2606 22.7601 19.2195 22.7601 17.9352V6.20728C22.7601 4.92297 21.8223 3.88184 20.6655 3.88184Z" stroke="#323232" stroke-width="0.369088" stroke-linecap="round" stroke-linejoin="round"/>
<path d="M3.14011 19.3859H20.4446C21.232 19.3859 21.8659 18.7036 21.8659 17.856V15.4057C15.6852 13.0283 6.73681 11.7546 1.71875 11.7148V17.856C1.71875 18.7036 2.35268 19.3859 3.14011 19.3859Z" fill="url(#paint2_linear_167_267452)"/>
<path d="M20.8135 6.7879C20.8135 6.91047 20.7872 7.03184 20.7361 7.14509C20.6849 7.25833 20.6099 7.36123 20.5154 7.44791C20.4208 7.53459 20.3086 7.60335 20.1851 7.65026C20.0615 7.69717 19.9291 7.72131 19.7954 7.72131C19.6617 7.72131 19.5293 7.69717 19.4058 7.65026C19.2822 7.60335 19.17 7.53459 19.0755 7.44791C18.9809 7.36123 18.9059 7.25833 18.8548 7.14509C18.8036 7.03184 18.7773 6.91047 18.7773 6.7879C18.7773 6.66533 18.8036 6.54396 18.8548 6.43071C18.9059 6.31747 18.9809 6.21457 19.0755 6.12789C19.17 6.04121 19.2822 5.97246 19.4058 5.92555C19.5293 5.87864 19.6617 5.85449 19.7954 5.85449C19.9291 5.85449 20.0615 5.87864 20.1851 5.92555C20.3086 5.97246 20.4208 6.04121 20.5154 6.12789C20.6099 6.21457 20.6849 6.31747 20.7361 6.43071C20.7872 6.54396 20.8135 6.66533 20.8135 6.7879Z" fill="#EEEEEC"/>
<defs>
<linearGradient id="paint0_linear_167_267452" x1="1.71875" y1="4.70312" x2="6.38451" y2="8.37664" gradientUnits="userSpaceOnUse">
<stop stop-color="#F2F2F0" stop-opacity="0.135417"/>
<stop offset="1" stop-color="#EEEEEC" stop-opacity="0.395833"/>
</linearGradient>
<linearGradient id="paint1_linear_167_267452" x1="0.995182" y1="4.03284" x2="22.4541" y2="20.2835" gradientUnits="userSpaceOnUse">
<stop stop-color="white"/>
<stop offset="1" stop-color="white" stop-opacity="0.333333"/>
</linearGradient>
<linearGradient id="paint2_linear_167_267452" x1="1.71875" y1="19.3859" x2="6.38451" y2="15.7124" gradientUnits="userSpaceOnUse">
<stop stop-color="#F2F2F0" stop-opacity="0.135417"/>
<stop offset="1" stop-color="#EEEEEC" stop-opacity="0.395833"/>
</linearGradient>
</defs>
</svg>
