<svg width="24" height="24" viewBox="0 0 24 24" fill="none" xmlns="http://www.w3.org/2000/svg">
<g clip-path="url(#clip0_167_267490)">
<g clip-path="url(#clip1_167_267490)">
<path d="M12 23.0156C18.0838 23.0156 23.0156 18.0838 23.0156 12C23.0156 5.91624 18.0838 0.984375 12 0.984375C5.91624 0.984375 0.984375 5.91624 0.984375 12C0.984375 18.0838 5.91624 23.0156 12 23.0156Z" fill="white"/>
<path d="M11.9791 0.937519C9.0553 0.942999 6.25236 2.10574 4.18377 4.17152C-0.139797 8.48828 -0.145282 15.4928 4.1715 19.8161C8.48822 24.1396 15.4927 24.1451 19.816 19.8283C24.1396 15.5116 24.1451 8.50708 19.8283 4.1838C17.7481 2.10035 14.9233 0.932035 11.9791 0.937519ZM12.086 0.984671C14.8954 1.00739 17.6824 2.10072 19.7951 4.21684C24.0935 8.52208 24.0881 15.4968 19.7829 19.7953C17.6303 21.9445 14.1429 21.9418 11.9937 19.7892C9.84444 17.6366 9.84716 14.1492 11.9998 12C14.1753 9.82787 14.1781 6.3033 12.0058 4.12783C10.2675 2.38684 7.57817 1.94565 5.41241 3.11261C7.40066 1.63412 9.75824 0.965827 12.086 0.984671ZM3.14037 7.09061H5.01537C5.48145 9.06625 6.19681 10.8133 6.92553 12.5483C7.67084 10.6111 8.48192 8.73972 9.51538 7.09061H11.3904C9.09688 11.6545 6.60022 14.7809 10.2654 18.8094H8.39038C6.16067 15.1886 4.52605 11.8873 3.14037 7.09061Z" fill="black" stroke="black" stroke-width="0.234375"/>
<path d="M13.7344 5.18945C17.3997 9.2177 14.9029 12.3445 12.6094 16.9082H14.4844C15.5178 15.2592 16.3289 13.3878 17.0742 11.4505C17.8029 13.1854 18.5183 14.9325 18.9844 16.9082H20.8594C19.4737 12.1115 17.8391 8.81008 15.6094 5.18945H13.7344Z" fill="black"/>
</g>
</g>
<defs>
<clipPath id="clip0_167_267490">
<rect width="24" height="24" fill="white"/>
</clipPath>
<clipPath id="clip1_167_267490">
<rect width="24" height="24" fill="white"/>
</clipPath>
</defs>
</svg>
