<svg width="24" height="24" viewBox="0 0 24 24" fill="none" xmlns="http://www.w3.org/2000/svg">
<path d="M2.99728 17.6516L3.82227 18.1279L13.013 2.21022L12.188 1.73392L2.99728 17.6516Z" fill="#E535AB"/>
<path d="M21.188 16.3799H2.80664V17.3325H21.188V16.3799Z" fill="#E535AB"/>
<path d="M3.17305 16.9154L12.3672 22.2236L12.8435 21.3987L3.64937 16.0905L3.17305 16.9154Z" fill="#E535AB"/>
<path d="M11.1574 3.07754L20.3516 8.38574L20.8279 7.56078L11.6337 2.25258L11.1574 3.07754Z" fill="#E535AB"/>
<path d="M3.17602 7.55981L3.65234 8.38477L12.8465 3.07656L12.3702 2.2516L3.17602 7.55981Z" fill="#E535AB"/>
<path d="M10.9929 2.20827L20.1836 18.126L21.0086 17.6497L11.8179 1.73196L10.9929 2.20827Z" fill="#E535AB"/>
<path d="M4.48975 6.92773H3.53711V17.5441H4.48975V6.92773Z" fill="#E535AB"/>
<path d="M20.4683 6.92773H19.5156V17.5441H20.4683V6.92773Z" fill="#E535AB"/>
<path d="M11.7851 21.0968L12.2012 21.8174L20.1976 17.2007L19.7815 16.4801L11.7851 21.0968Z" fill="#E535AB"/>
<path d="M21.7277 17.8543C21.1768 18.8127 19.9487 19.1398 18.9903 18.5889C18.0319 18.038 17.7048 16.8099 18.2557 15.8516C18.8066 14.8932 20.0347 14.5661 20.9931 15.117C21.9572 15.6737 22.2844 16.896 21.7277 17.8543Z" fill="#E535AB"/>
<path d="M5.73941 8.62094C5.18848 9.57929 3.96038 9.90639 3.002 9.35548C2.04362 8.80458 1.71651 7.57652 2.26743 6.61817C2.81836 5.65983 4.04646 5.33273 5.00484 5.88363C5.96322 6.44028 6.29033 7.6626 5.73941 8.62094Z" fill="#E535AB"/>
<path d="M2.27329 17.8543C1.72237 16.896 2.04948 15.6737 3.00786 15.117C3.96624 14.5661 5.1886 14.8932 5.74527 15.8516C6.29619 16.8099 5.96908 18.0322 5.0107 18.5889C4.04658 19.1398 2.82422 18.8127 2.27329 17.8543Z" fill="#E535AB"/>
<path d="M18.2596 8.62094C17.7087 7.6626 18.0358 6.44028 18.9942 5.88363C19.9526 5.33273 21.1749 5.65983 21.7316 6.61817C22.2825 7.57652 21.9554 8.79884 20.997 9.35548C20.0386 9.90639 18.8105 9.57929 18.2596 8.62094Z" fill="#E535AB"/>
<path d="M11.9989 23.4723C10.8913 23.4723 9.99609 22.5771 9.99609 21.4696C9.99609 20.362 10.8913 19.4668 11.9989 19.4668C13.1065 19.4668 14.0018 20.362 14.0018 21.4696C14.0018 22.5714 13.1065 23.4723 11.9989 23.4723Z" fill="#E535AB"/>
<path d="M11.9989 5.00554C10.8913 5.00554 9.99609 4.11032 9.99609 3.00277C9.99609 1.89522 10.8913 1 11.9989 1C13.1065 1 14.0018 1.89522 14.0018 3.00277C14.0018 4.11032 13.1065 5.00554 11.9989 5.00554Z" fill="#E535AB"/>
</svg>
