<svg width="24" height="24" viewBox="0 0 24 24" fill="none" xmlns="http://www.w3.org/2000/svg">
<path d="M10.7607 1H14.3629V17.5101C12.5178 17.8591 11.1594 17.9965 9.6898 17.9965C5.2902 17.9919 3 16.0263 3 12.2514C3 8.61419 5.42928 6.2537 9.19375 6.2537C9.77789 6.2537 10.2229 6.29963 10.7607 6.4374V1ZM10.887 9.41267C10.4651 9.2749 10.1174 9.22897 9.67233 9.22897C7.85037 9.22897 6.79799 10.3403 6.79799 12.288C6.79799 14.1842 7.80401 15.2312 9.64915 15.2312C10.0478 15.2312 10.3724 15.2087 10.887 15.1398V9.41267Z" fill="#2BA977"/>
<path d="M20.2525 6.69727V14.9636C20.2525 17.8104 20.0393 19.1794 19.4134 20.3596C18.8293 21.4944 18.0597 22.2099 16.4695 23.0003L13.127 21.4251C14.7171 20.6862 15.4867 20.0331 15.9781 19.0366C16.4927 18.0175 16.655 16.8373 16.655 13.7328V6.69727H20.2525Z" fill="#2BA977"/>
<path d="M16.293 1H19.8952V4.66014H16.293V1Z" fill="#2BA977"/>
</svg>
