<svg width="24" height="24" viewBox="0 0 24 24" fill="none" xmlns="http://www.w3.org/2000/svg">
<g clip-path="url(#clip0_167_267469)">
<g clip-path="url(#clip1_167_267469)">
<path d="M20.9334 6H3.04155L-0.0273438 12.4297L3.04155 18.8594H20.9334L24.0023 12.4297L20.9334 6ZM19.9079 17.7895H3.71602L1.15765 12.4297L3.71602 7.0699H19.9079L22.4663 12.4297L19.9079 17.7895Z" fill="#008EC7"/>
<path d="M22.4649 12.4307L19.9065 17.7905H3.71462L1.15625 12.4307L3.71462 7.07031H19.9065L22.4649 12.4307Z" fill="#005B9B"/>
<path d="M8.20528 10.6221V14.4497H7.31927V12.8795H5.58325V14.449H4.69531V10.6221H5.58068V12.1311H7.3167V10.6221H8.20528Z" fill="white"/>
<path d="M9.9065 11.3441H8.68164V10.6221H12.0167V11.3441H10.7951V14.4497H9.9065V11.3441Z" fill="white"/>
<path d="M13.3401 11.3441H12.1152V10.6221H15.4503V11.3441H14.2255V14.4497H13.3401V11.3441Z" fill="white"/>
<path d="M18.4655 10.7924C18.7011 10.8929 18.9023 11.0601 19.0442 11.2733C19.1824 11.4943 19.2526 11.751 19.2461 12.0115C19.2519 12.2711 19.1817 12.5267 19.0442 12.747C18.9034 12.9613 18.7019 13.1287 18.4655 13.228C18.186 13.3449 17.885 13.4016 17.5821 13.3945H16.8105V14.4502H15.9258V10.6227H17.5821C17.8853 10.6155 18.1865 10.6734 18.4655 10.7924ZM18.1402 12.5008C18.2101 12.4406 18.2651 12.3652 18.3012 12.2804C18.3372 12.1955 18.3532 12.1035 18.3478 12.0115C18.3478 11.7967 18.2784 11.6315 18.1402 11.517C18.0019 11.4026 17.7994 11.3447 17.5332 11.3447H16.8112V12.6731H17.5332C17.7994 12.6731 18.0017 12.6156 18.1402 12.5008Z" fill="white"/>
</g>
</g>
<defs>
<clipPath id="clip0_167_267469">
<rect width="24" height="24" fill="white"/>
</clipPath>
<clipPath id="clip1_167_267469">
<rect width="24.0284" height="12.8594" fill="white" transform="translate(-0.0292969 6)"/>
</clipPath>
</defs>
</svg>
