<svg width="24" height="24" viewBox="0 0 24 24" fill="none" xmlns="http://www.w3.org/2000/svg">
<g clip-path="url(#clip0_167_267504)">
<path d="M22.7643 15.594C22.7643 16.7228 21.8408 17.6463 20.712 17.6463H3.46243C2.33368 17.6463 1.41016 16.7228 1.41016 15.594V9.05813C1.41016 7.92938 2.33368 7.00586 3.46243 7.00586H20.712C21.8408 7.00586 22.7643 7.92938 22.7643 9.05813V15.594Z" fill="url(#paint0_linear_167_267504)"/>
<path d="M19.1579 12.1863C20.0594 12.5017 20.51 13.0421 20.51 13.8068C20.51 14.3101 20.3231 14.7095 19.9502 15.005C19.5777 15.3006 19.0463 15.4841 18.3545 15.4841C17.6628 15.4841 17.0229 15.2837 16.4336 14.9547C16.44 14.7802 16.4861 14.5887 16.5708 14.3809C16.6554 14.1731 16.7556 14.008 16.8704 13.8874C17.4121 14.1689 17.8834 14.3099 18.2835 14.3099C18.4725 14.3099 18.6188 14.2781 18.7207 14.2143C18.8227 14.1506 18.8734 14.0651 18.8734 13.9577C18.8734 13.7559 18.7171 13.605 18.4055 13.5044L17.8457 13.2929C16.9988 12.9843 16.5754 12.4814 16.5754 11.7829C16.5754 11.2728 16.7533 10.8685 17.109 10.5695C17.4648 10.2708 17.9443 10.0137 18.5472 10.0137C18.8455 10.0137 19.1739 10.0556 19.5332 10.1395C19.8921 10.2235 20.187 10.4305 20.4174 10.5443C20.431 10.7324 20.3933 10.9388 20.3056 11.1636C20.2174 11.3885 20.1092 11.5478 19.98 11.6419C19.4105 11.3868 18.9365 11.2592 18.5568 11.2592C18.4209 11.2592 18.3185 11.2893 18.2466 11.35C18.1755 11.4105 18.1405 11.4876 18.1405 11.5816C18.1405 11.7427 18.2691 11.8701 18.5268 11.9641L19.1579 12.1863Z" fill="#F6F6F6"/>
<path d="M14.652 12.1863C15.5535 12.5017 16.0039 13.0421 16.0039 13.8068C16.0039 14.3101 15.817 14.7095 15.4447 15.005C15.0718 15.3006 14.5402 15.4841 13.8487 15.4841C13.1575 15.4841 12.5169 15.2837 11.9277 14.9547C11.9341 14.7802 11.9802 14.5887 12.0651 14.3809C12.1497 14.1731 12.2495 14.008 12.3647 13.8874C12.907 14.1689 13.3781 14.3099 13.778 14.3099C13.9672 14.3099 14.1136 14.2781 14.215 14.2143C14.3166 14.1506 14.3677 14.0651 14.3677 13.9577C14.3677 13.7559 14.2114 13.605 13.8998 13.5044L13.3404 13.2929C12.4933 12.9843 12.0697 12.4814 12.0697 11.7829C12.0697 11.2728 12.2476 10.8685 12.6037 10.5695C12.9593 10.2708 13.4386 10.0137 14.0415 10.0137C14.3396 10.0137 14.6688 10.0556 15.0273 10.1395C15.3867 10.2235 15.6811 10.4305 15.9117 10.5443C15.9253 10.7324 15.8875 10.9388 15.7999 11.1636C15.7119 11.3885 15.6035 11.5478 15.4745 11.6419C14.9047 11.3868 14.4308 11.2592 14.0509 11.2592C13.9152 11.2592 13.8123 11.2893 13.7409 11.35C13.67 11.4105 13.6347 11.4876 13.6347 11.5816C13.6347 11.7427 13.7634 11.8701 14.0212 11.9641L14.652 12.1863Z" fill="#F6F6F6"/>
<path d="M11.3694 12.258C11.3694 11.9493 11.3203 11.6641 11.2221 11.4021C11.124 11.1402 10.9833 10.9156 10.8004 10.7276C10.6173 10.5395 10.3955 10.3919 10.1348 10.2845C9.87367 10.1773 9.5806 10.0156 9.25539 10.0156C8.86908 10.0156 8.53192 10.1905 8.24405 10.3249C7.95617 10.459 7.71899 10.6435 7.53272 10.8785C7.34605 11.1136 7.20711 11.3903 7.11567 11.7091C7.02423 12.028 6.97852 12.3753 6.97852 12.7511C6.97852 13.14 7.01565 13.4997 7.09032 13.8285C7.16478 14.1569 7.29192 14.442 7.47144 14.6839C7.6511 14.9255 7.88487 15.1134 8.17294 15.2473C8.46102 15.3815 8.81856 15.4845 9.2454 15.4845C10.0314 15.4845 10.6954 15.2569 11.2376 14.8746C11.1839 14.4857 11.0453 14.1765 10.8227 13.9483C10.5458 14.0523 10.3009 14.1267 10.0885 14.1725C9.87586 14.2176 9.68839 14.2404 9.5265 14.2404C9.20247 14.2404 8.9693 14.1579 8.82778 13.9914C8.6864 13.8255 8.60885 13.6293 8.59511 13.3312H11.238C11.3253 13.0489 11.3694 12.6674 11.3694 12.258ZM8.58504 12.3277C8.60518 11.9851 8.6677 11.6186 8.77171 11.4676C8.87593 11.3165 9.03543 11.2411 9.25083 11.2411C9.47264 11.2411 9.63913 11.3213 9.74992 11.4824C9.86094 11.6435 9.9164 11.9682 9.9164 12.2165L9.91661 12.3277H8.58504Z" fill="#F6F6F6"/>
<path d="M23.2971 12.9974C23.0098 13.2484 22.8431 13.6095 22.8431 14.0817V15.8401C22.8431 16.4246 22.6634 16.8692 22.2576 17.1748C21.8521 17.4801 21.3794 17.6312 20.8398 17.6458L20.52 17.6434V16.7672C20.8019 16.6849 20.9176 16.5893 21.0298 16.4807C21.2331 16.297 21.3888 15.9982 21.3888 15.5831V14.1635C21.3964 13.681 21.4335 13.3029 21.6092 13.0298C21.7855 12.7567 22.1286 12.5179 22.6387 12.3117C22.0753 12.0537 21.697 11.7169 21.5041 11.3015C21.3908 11.0548 21.3886 10.7218 21.3886 10.3029V9.00107C21.3886 8.57104 21.2478 8.26981 21.0747 8.09791C20.9621 7.98571 20.8312 7.89607 20.5195 7.82841V7.00589C20.9007 7.00988 21.0931 7.00551 21.3151 7.00589C21.6569 7.0031 21.9432 7.18997 22.1923 7.3846C22.4636 7.59801 22.6564 7.88651 22.7694 8.24963C22.8337 8.45944 22.8429 8.6599 22.8429 8.85073V10.3564C22.8429 10.8882 23 11.2835 23.2685 11.5416C23.4199 11.6914 23.6335 11.8283 24.0002 11.9519V12.6321C23.6752 12.7219 23.4712 12.8437 23.2971 12.9974Z" fill="#F6F6F6" stroke="#404040" stroke-width="0.129322" stroke-miterlimit="10"/>
<path d="M3.08097 7.00593V7.00711C2.97178 7.00651 2.87294 7.00611 2.7939 7.00631C2.45192 7.00332 2.16566 7.19019 1.91672 7.38502C1.64502 7.59843 1.41245 7.87694 1.33959 8.25005C1.29807 8.46885 1.30686 8.66009 1.30686 8.85115V10.3568C1.30686 10.8885 1.10901 11.2835 0.840699 11.5421C0.689556 11.6918 0.366935 11.8285 0 11.9521V12.6323C0.325207 12.7219 0.638263 12.8433 0.811927 12.9974C1.0994 13.2485 1.3066 13.6099 1.3066 14.082V15.8404C1.3066 16.4246 1.44597 16.8696 1.85142 17.1748C2.25689 17.4798 2.72943 17.6316 3.26905 17.6463L3.63018 17.6439V16.7671C3.34848 16.6847 3.19199 16.589 3.07919 16.4808C2.87615 16.2969 2.76116 15.9983 2.76116 15.5834V14.1636C2.75338 13.6807 2.67552 13.303 2.49965 13.0297C2.32378 12.757 1.98059 12.5178 1.46992 12.3118C2.03352 12.0537 2.41163 11.7171 2.60447 11.3018C2.71808 11.0549 2.76119 10.7219 2.76119 10.3031V9.00122C2.76119 8.57119 2.86099 8.26996 3.0339 8.09788C3.12772 8.00445 3.29461 7.92758 3.52642 7.86531L3.89295 7.86787C3.89295 7.55238 3.89295 7.35489 3.89295 7.00586H3.08102V7.00593H3.08097Z" fill="#F6F6F6" stroke="#404040" stroke-width="0.129322" stroke-miterlimit="10"/>
<path d="M6.4607 14.1398H6.18621C5.88777 14.1398 5.77537 13.9829 5.77537 13.6676V7.87439C5.77537 7.52604 5.67476 7.28147 5.54597 7.14055C5.41719 7 5.19362 7.00141 4.87519 7.00141H4.2553L4.18224 7V7.00597L4.18164 7.86822V13.948C4.18164 14.4315 4.29025 14.7852 4.48347 15.0104C4.67692 15.2352 5.00374 15.3474 5.46449 15.3474C5.78312 15.3474 6.14566 15.3139 6.55212 15.2466C6.57248 15.1787 6.58267 15.0334 6.58267 14.8104C6.58267 14.5868 6.54197 14.3638 6.4607 14.1398Z" fill="#F6F6F6"/>
</g>
<defs>
<linearGradient id="paint0_linear_167_267504" x1="12.0872" y1="7.00586" x2="12.0872" y2="17.6463" gradientUnits="userSpaceOnUse">
<stop offset="0.1497" stop-color="#2A4F84"/>
<stop offset="0.3884" stop-color="#294E82"/>
<stop offset="1" stop-color="#172E4E"/>
</linearGradient>
<clipPath id="clip0_167_267504">
<rect width="24" height="24" fill="white"/>
</clipPath>
</defs>
</svg>
