<svg width="24" height="24" viewBox="0 0 24 24" fill="none" xmlns="http://www.w3.org/2000/svg">
<g clip-path="url(#clip0_169_267583)">
<path d="M5.64993 13.7707C5.44735 13.7817 5.26585 13.9 5.17418 14.0805C5.06876 14.274 4.8176 14.3024 4.70026 14.2648C4.50776 14.2006 4.25935 14.1557 4.01826 14.3271C3.77718 14.4985 3.51776 14.3684 3.56451 14.0549C3.60943 13.7432 3.72218 13.4636 4.02193 13.294C4.67643 12.9182 4.22085 12.657 4.57926 12.2775C4.94043 11.8998 4.86068 11.7852 4.84785 11.27C3.63235 11.0867 2.94301 10.7365 2.17485 9.77496C1.40576 8.81521 1.10693 8.02412 1.0281 6.81962C0.94743 5.61237 1.01801 4.83138 1.53868 3.83038C2.05935 2.83304 2.60935 2.35179 3.55718 1.85221C4.50593 1.34988 5.43726 1.23163 6.2971 1.24629C7.15785 1.26004 7.73076 1.32238 8.2166 1.60104C8.70335 1.87879 9.14793 2.22804 9.43026 2.22896C9.65026 2.24271 9.86751 2.18038 10.0472 2.05296C10.0838 2.98796 9.24235 3.06863 8.49068 3.08879C7.73901 3.10804 7.27701 2.79821 6.58401 2.91279C5.89285 3.03013 4.75801 3.34454 4.20526 4.30613C3.65251 5.26863 3.63326 5.60779 3.68001 6.41537C3.72493 7.22021 4.41885 7.82154 4.81118 7.82887C5.20351 7.83529 5.2906 7.72162 5.63435 7.49887C5.97718 7.27337 7.72801 5.10638 8.32385 4.62054C8.92243 4.13379 9.51185 3.98254 10.148 3.97429C10.7851 3.96696 10.9464 3.98804 11.4616 4.19979C11.9749 4.40971 12.2903 4.79746 12.7046 5.03396C12.9154 4.91021 13.0483 4.72321 13.2399 4.58021C13.9366 4.07421 14.2959 3.93671 15.1218 4.01646C15.5967 4.06412 16.1934 4.33454 16.5518 4.64529C17.1871 5.19896 17.7123 5.96621 18.1358 6.55104C18.4658 7.00662 18.8554 7.55112 19.4118 7.72162C20.0159 7.90587 20.4724 7.12396 20.5393 6.68671C20.5788 6.43921 20.6283 6.22287 20.6283 5.95246C20.6283 5.68021 20.6008 5.35204 20.5228 5.06787C20.4403 4.78646 20.3193 4.51879 20.1635 4.27129C19.927 3.88996 19.5402 3.49213 19.1405 3.28863C18.915 3.17404 18.3833 2.96504 18.0488 2.95771C17.6381 2.94854 17.3255 3.08696 16.9469 3.11263C16.4886 3.14379 15.6673 3.24646 15.3098 2.89263C15.0797 2.66713 15.0503 2.51588 15.0128 2.22254C15.1127 2.30688 15.2548 2.36004 15.3803 2.37196C15.6673 2.39579 15.9349 2.16204 16.1678 2.02546C16.3603 1.91271 16.6298 1.71379 16.8809 1.61296C17.5263 1.35171 18.3183 1.35813 18.9984 1.42963C19.5438 1.48463 20.2524 1.72663 20.7309 1.99888C21.2131 2.27021 21.676 2.72946 22.0143 3.16121C22.4414 3.70571 22.6752 4.17321 22.8292 4.85154C23.0272 5.71779 23.0831 7.01946 22.8429 7.87562C22.655 8.54846 22.0298 9.58154 21.4982 10.0885C20.9729 10.5899 20.3661 10.8319 19.6777 10.9639C19.7052 11.1005 19.7079 11.2306 19.7428 11.3452C19.7941 11.5084 19.8922 11.689 20.0911 11.6321C20.1699 11.6092 20.213 11.589 20.3166 11.6807C20.422 11.7724 20.3679 12.1253 20.0728 12.2857C19.9224 12.3645 19.7666 12.382 19.5273 12.3884C19.2349 12.3994 18.9416 12.3847 18.6538 12.3462C18.3943 12.3031 18.2403 12.096 17.9525 12.063C17.5079 12.0125 17.1688 11.6917 16.8113 11.4635C16.6628 11.3681 16.6114 11.3681 16.5262 11.3186C16.5729 11.4598 16.6343 11.6065 16.6646 11.7449C16.6958 11.8787 16.6829 12.0061 16.6985 12.1152C16.7159 12.2243 16.7462 12.3086 16.7627 12.3985C16.8333 12.4608 16.8571 12.557 16.9763 12.5882C17.0954 12.6203 17.2824 12.5717 17.4053 12.5543C17.529 12.5378 17.6106 12.4718 17.7059 12.4901C17.8022 12.5085 17.8929 12.5781 17.9736 12.6423C18.0543 12.7065 18.1239 12.7156 18.1881 12.8751C18.2523 13.0383 18.3118 13.3674 18.3219 13.5874C18.3302 13.8074 18.3054 14.0045 18.2403 14.1814C18.1762 14.3546 18.1166 14.4316 17.9406 14.6058C17.7646 14.78 17.4768 15.032 17.1898 15.2108C17.243 15.2878 17.2659 15.3593 17.3484 15.4436C17.4309 15.5298 17.6023 15.6242 17.6775 15.714C17.7554 15.8039 17.7948 15.868 17.7948 15.968C17.8058 16.088 17.7756 16.2081 17.7096 16.3099C17.5052 16.584 17.2668 16.6325 16.9735 16.7609C17.023 17.067 17.0633 17.2852 16.9918 17.5914C16.9643 17.717 16.8983 17.9993 16.7443 18.0726C16.5894 18.146 16.2933 18.1102 16.1045 18.1405C15.9166 18.1689 15.8121 18.1982 15.6654 18.2266C15.5756 18.3559 15.4436 18.4989 15.3987 18.6135C15.3538 18.7299 15.3675 18.7711 15.4042 18.8875C15.4427 19.0058 15.5738 19.1772 15.6104 19.3175C15.6462 19.455 15.6553 19.6025 15.6205 19.7419C15.5857 19.8794 15.5133 20.005 15.4097 20.1049C15.2914 20.2286 15.0595 20.3249 14.9431 20.422C14.8285 20.5238 14.7121 20.5348 14.7442 20.6998C14.7873 20.9271 15.1191 21.292 15.3583 21.3818C15.5279 21.4322 15.7085 21.4175 15.8689 21.3442C15.8561 21.5358 15.6902 21.6687 15.5802 21.797C15.8753 21.7109 16.1632 21.5495 16.363 21.335C16.3016 21.5211 16.088 21.82 15.7718 22.083C15.4555 22.3461 15.4573 22.293 15.2978 22.3984C15.5857 22.4543 15.8533 22.4396 16.077 22.4002C15.8964 22.502 15.6957 22.567 15.4894 22.59C15.2245 22.6184 15.0604 22.5973 14.8212 22.5395C14.5819 22.4818 14.3638 22.2636 14.075 22.1133C14.1025 22.2224 14.1236 22.3516 14.2446 22.4625C14.3693 22.5716 14.5517 22.6294 14.7478 22.722C14.4985 22.6954 14.2363 22.688 13.9925 22.634C13.8101 22.5909 13.6882 22.5496 13.5543 22.4836C13.4223 22.4195 13.3206 22.3223 13.2023 22.2416C13.2583 22.3489 13.2748 22.4763 13.371 22.5643C13.4663 22.6541 13.6231 22.688 13.7487 22.7467C13.6176 22.743 13.4911 22.7733 13.3545 22.7375C13.2078 22.7036 13.0685 22.6376 12.9484 22.546C12.8018 22.4369 12.6633 22.3168 12.5405 22.183C12.4195 22.05 12.2692 21.8786 12.2243 21.7585C12.1803 21.6366 12.2518 21.5523 12.2646 21.4487C12.1821 21.5046 12.0803 21.5349 12.0153 21.6137C11.9511 21.6944 11.8943 21.7659 11.9227 21.9052C11.9502 22.0427 12.0803 22.215 12.1711 22.369C11.8998 22.1472 11.7485 22.061 11.6843 21.7961C11.6257 21.5459 11.7797 21.3195 11.8979 21.1315C11.9566 21.0362 12.0464 20.9491 12.1005 20.8575C11.9768 20.7392 11.8393 20.6375 11.7338 20.5009C11.6303 20.3634 11.5853 20.1782 11.4799 20.0499C11.3727 19.9188 11.2288 19.8372 11.1041 19.7309C11.2132 19.9655 11.3947 20.2552 11.4332 20.4376C11.4735 20.62 11.3892 20.7328 11.3241 20.8318C11.2599 20.9299 11.1554 20.9537 11.0564 21.0124C10.9556 21.0747 10.8025 21.027 10.7429 21.116C10.6833 21.2049 10.6668 21.3415 10.7237 21.4313L10.9583 21.7961C10.8428 21.7301 10.7429 21.6421 10.6586 21.5385C10.5908 21.4505 10.4881 21.3662 10.4762 21.2489C10.4615 21.1288 10.4551 21.0234 10.5339 20.9161C10.6109 20.8089 10.8254 20.7731 10.9208 20.6906C11.017 20.6081 11.0693 20.555 11.0638 20.4486C11.0583 20.3414 10.9547 20.2662 10.8648 20.1984C10.5908 19.9921 10.2415 19.8042 10.0087 19.5576C9.90876 19.4614 9.8336 19.3431 9.7896 19.2102C9.7621 19.114 9.79051 19.0379 9.85468 18.9224C9.92068 18.8023 10.1434 18.6428 10.1718 18.5163C10.1984 18.387 10.0848 18.3586 9.98393 18.3137C9.88218 18.2688 9.68876 18.3366 9.59435 18.2578C9.49993 18.179 9.62185 18.014 9.51551 17.9232C9.40918 17.8325 9.16626 17.882 9.03976 17.7857C8.92885 17.6922 8.85185 17.5657 8.81976 17.4236C8.7776 17.2944 8.77118 17.1569 8.80051 17.024C8.82985 16.9204 8.91785 16.902 8.97193 16.8489C9.02601 16.7966 9.07093 16.7535 8.99943 16.6738C8.9316 16.5931 8.69693 16.6775 8.5631 16.5775C8.42651 16.474 8.5081 16.2283 8.41368 16.1247C8.31835 16.0248 8.1506 16.0642 8.05985 16.0294C7.97093 15.9973 7.9361 16.1119 7.88201 15.9295C7.8261 15.747 7.82426 15.1989 7.75093 14.9945C7.6776 14.79 7.53276 14.9798 7.46585 14.7781C7.3971 14.5755 7.46218 14.252 7.43193 13.9458L7.29443 13.1116C6.81685 13.4343 6.49968 13.536 5.98543 13.6259C5.94235 14.8845 5.8241 15.626 6.25218 17.0221C6.67843 18.4164 7.54285 19.2405 8.70885 20.4202C7.16885 19.2689 6.43643 18.3311 5.97626 17.1312C5.51701 15.9295 5.6041 14.9248 5.64993 13.7707ZM13.8257 13.2638C13.9439 13.2693 14.0869 13.2995 14.1703 13.3536C14.2538 13.4095 14.3427 13.4517 14.4178 13.5269C14.6067 13.7203 14.7478 13.9513 14.8102 14.2162C14.8505 14.3867 14.856 14.603 14.8688 14.802C14.812 14.6195 14.7744 14.428 14.6928 14.263C14.5654 14.0017 14.3482 13.7487 14.0768 13.6323C14.0163 13.6039 13.9476 13.5947 13.8807 13.6075C13.9018 13.6451 13.9384 13.6772 13.9403 13.7295C13.9403 13.7835 13.9293 13.889 13.8376 13.9339C13.6909 14.0054 13.5268 13.9531 13.4123 13.855C13.2958 13.7478 13.2601 13.5791 13.3188 13.4343C13.3912 13.2565 13.6625 13.2565 13.8257 13.2638ZM12.3398 13.0145C12.3553 12.7101 12.4635 12.4562 12.7367 12.3077C12.9081 12.2096 13.096 12.1427 13.2903 12.1106C13.4801 12.0868 13.9439 12.1033 14.2235 12.2307C14.4362 12.327 14.5819 12.4791 14.7708 12.5919C14.9587 12.7028 15.0925 12.7761 15.2713 12.9017C15.5463 13.0951 15.7067 13.3041 15.8964 13.4297C15.989 13.4902 16.1164 13.482 16.2393 13.5195C16.1439 13.5461 16.0202 13.5782 15.9184 13.5461C15.7727 13.4875 15.6361 13.4068 15.5169 13.3041C15.3758 13.1785 15.2236 13.0676 15.0613 12.975C14.9477 12.909 14.7598 12.8302 14.6342 12.7495C14.5104 12.667 14.2941 12.4901 14.174 12.4296C13.9843 12.3508 13.7817 12.3114 13.5782 12.315C13.3435 12.3224 13.0043 12.3609 12.8247 12.524C12.6441 12.689 12.5763 12.832 12.6166 13.0429C12.6835 12.9659 12.7293 12.8678 12.7953 12.81C12.9365 12.6881 13.0969 12.6826 13.2729 12.7065C13.47 12.7312 13.5681 12.844 13.6332 13.031C13.5901 13.0007 13.5094 12.931 13.4462 12.9072C13.3142 12.8568 13.1657 12.8715 13.0447 12.9466C12.8806 13.0365 12.9255 13.1666 12.9035 13.3096C12.8916 13.3793 12.8659 13.4315 12.8476 13.492C12.7862 13.4774 12.7293 13.4471 12.6826 13.4022C12.6835 13.4719 12.6734 13.5315 12.6881 13.6066C12.7009 13.6836 12.7385 13.7753 12.7651 13.8569C12.6496 13.7423 12.5304 13.6369 12.458 13.4884C12.3792 13.3445 12.3379 13.1795 12.3398 13.0145ZM12.5405 10.8145C12.6239 10.6898 12.6496 10.4982 12.7 10.3405C12.6808 10.5395 12.7193 10.7558 12.6239 10.8988C12.5277 11.0436 12.3563 11.017 12.2178 11.0601C12.326 10.9776 12.4543 10.94 12.5405 10.8145ZM10.5174 13.7505C10.6265 13.6625 10.9189 13.7322 11.1371 13.7487L10.6659 13.8706C10.6503 13.9247 10.6568 13.9834 10.6219 14.0301C10.5853 14.0769 10.5174 14.0925 10.4652 14.1255C10.4707 13.9834 10.4083 13.8385 10.5174 13.7505ZM12.0602 7.65287C12.1913 7.72162 12.3544 7.81604 12.4718 7.81787C12.5854 7.82154 12.6166 7.74454 12.6844 7.69779C12.7898 8.04612 12.9136 8.42838 13.0951 8.74463C13.1712 8.87846 13.2198 8.81704 13.2784 8.94996C13.3362 9.08288 13.3609 9.35237 13.4159 9.52379C13.47 9.69521 13.5415 9.81804 13.6057 9.96654C13.4462 9.73737 13.2381 9.44771 13.1473 9.25796C13.0575 9.06821 13.1153 9.05171 13.0419 8.87204C12.9704 8.69054 12.8238 8.41004 12.7147 8.17904C12.6358 8.18912 12.5405 8.20287 12.4809 8.18454C12.4213 8.16529 12.4314 8.10112 12.3783 8.06171C12.3242 8.02046 12.2334 8.03696 12.1583 7.97004C12.084 7.90587 12.0666 7.77112 12.0602 7.65287ZM11.3571 9.37163C11.4808 9.36063 11.6312 9.39271 11.7467 9.38721C11.8622 9.38171 11.9447 9.35146 12.0446 9.33221C12.0253 9.15896 12.0428 8.83996 11.8833 8.72354C11.7778 8.65021 11.3534 8.70521 11.2407 8.72904C10.9849 8.78496 10.687 8.93713 10.4404 9.03154C10.6769 8.86654 10.8813 8.71438 11.1655 8.62913C11.3378 8.57871 11.7348 8.51087 11.9108 8.55946C11.9923 8.58054 12.007 8.61538 12.0565 8.68321C12.2243 8.91696 12.2243 9.11862 12.2664 9.39179C12.3095 9.45687 12.3544 9.50088 12.3902 9.56963C12.425 9.65488 12.447 9.74379 12.4525 9.83454C12.4085 9.77129 12.436 9.69246 12.3159 9.64571C12.1922 9.59713 12.007 9.64113 11.842 9.65854C11.9621 9.74654 12.0208 9.82904 12.0263 10.0105C12.0318 10.2241 11.8512 10.3781 11.6614 10.3928C11.4002 10.413 11.2636 10.3552 11.1582 10.1315C11.1114 10.0335 11.1435 9.91521 11.1417 9.81896C10.8245 9.84096 10.83 9.83088 10.599 10.0225C10.7264 10.2067 10.8043 10.3112 11.0124 10.4221C11.127 10.4826 11.2599 10.544 11.402 10.5688C11.5459 10.5935 11.7824 10.6174 11.9346 10.5935C12.0675 10.577 12.1894 10.5184 12.282 10.4221C12.3948 10.3195 12.4058 10.171 12.4488 10.0527C12.4452 10.1691 12.4241 10.2837 12.3847 10.3928C12.2563 10.6403 12.0363 10.7155 11.7723 10.7155C11.5203 10.7155 11.2077 10.6577 10.9721 10.5605C10.7842 10.4826 10.4725 10.2626 10.3992 10.071C10.3478 9.93996 10.3882 9.77954 10.3827 9.63379C10.6439 9.46054 10.7072 9.50271 11.0143 9.45229C11.1435 9.42937 11.2333 9.38263 11.3571 9.37163ZM9.84001 8.19921C9.84643 8.09471 9.85926 8.09746 9.86751 8.04612C9.6301 7.98287 9.5366 8.13687 9.39635 8.42287C9.3441 8.52829 9.39635 8.59338 9.33951 8.66396C9.28543 8.73363 9.19376 8.72354 9.10393 8.79138C9.0141 8.85921 8.92426 8.98846 8.83901 9.05904C8.66576 9.20204 8.42926 9.28912 8.2276 9.38721C8.3651 9.28546 8.63368 9.13146 8.72076 8.98479C8.7666 8.90596 8.75926 8.75837 8.83076 8.68687C8.90226 8.61812 8.92701 8.56771 9.01868 8.55029C9.11035 8.53288 9.0746 8.42562 9.10393 8.34037C9.13326 8.25696 9.19285 8.19554 9.25518 8.11029C9.31751 8.02504 9.39818 7.89946 9.52193 7.85179C9.64568 7.80687 9.84001 7.85637 9.93443 7.83071C10.0279 7.80412 9.97385 7.73446 10.0426 7.69321C10.1113 7.65196 10.2433 7.67212 10.3359 7.62721C10.4973 7.55021 10.5743 7.41912 10.6723 7.28162C10.6861 7.58046 10.6815 7.79587 10.5743 8.07821C10.4542 8.39537 10.3304 8.58237 9.98668 8.77762C9.86935 8.84362 9.7511 8.86746 9.6521 8.90321C9.70893 8.82437 9.79143 8.79046 9.82443 8.66854C9.8556 8.54388 9.83268 8.30187 9.84001 8.19921ZM15.3941 9.65854C15.2318 9.67138 15.1933 9.64754 15.0613 9.74196L15.274 10.072C15.2685 9.85471 15.2905 9.81071 15.3959 9.65854H15.3941ZM14.9678 9.50088C15.1933 9.40554 15.3904 9.32763 15.637 9.31113C15.7351 9.30379 15.8882 9.31938 15.9881 9.32579C16.0743 9.20021 16.1815 9.10212 16.2228 8.95912C16.2484 8.86379 16.2365 8.42379 16.1879 8.30921C16.0541 7.97829 15.9221 7.96362 15.7342 7.77296C15.6003 7.63637 15.5948 7.42462 15.5536 7.18812C15.5398 7.10196 15.4968 6.99287 15.4766 6.90396C15.2172 6.86179 14.9541 6.84712 14.691 6.86271C14.8267 6.73162 14.9578 6.61429 14.9972 6.41721C15.0384 6.20729 15.0008 5.99004 14.8936 5.80579C14.7827 5.63071 14.6048 5.47579 14.4408 5.33187C14.2776 5.18979 14.0411 5.07154 13.8871 4.95421C14.0897 4.88362 14.2941 4.77638 14.4921 4.73879C15.0063 4.63979 15.4482 4.79104 15.9441 5.09079C16.2328 5.26496 16.4693 5.42996 16.7709 5.74712C17.0725 6.06246 17.4447 6.64087 17.7371 6.98279C18.0277 7.32654 18.2642 7.59696 18.519 7.80137C18.772 8.00854 19.003 8.06629 19.245 8.19646L19.6227 8.59796L19.9298 8.21937L20.4202 8.27437L20.5219 7.72346L20.9711 7.59879L20.8987 6.85537L21.2232 6.62437L20.9784 6.16237L21.2259 5.65546L20.9033 5.07796L21.027 4.52154L20.6539 4.20254L20.6053 3.61038L20.0838 3.41146L19.8757 2.89721L19.289 2.89079L19.0003 2.50854L18.6052 2.53604L18.1661 2.48746L17.9186 2.30504L17.5556 2.54338L17.1183 2.31604L16.2503 2.64513L16.8168 2.15288L17.4034 2.05938L17.8526 1.94388L18.4603 2.14371L18.9938 2.00896L19.5099 2.31238L20.0563 2.28396L20.3248 2.76521L20.8666 2.82663L21.1599 3.35921L21.5009 3.54713L21.5926 4.23096L21.8978 4.51971L21.7622 5.11829L22.1197 5.57112L21.7869 6.05604L22.1444 6.36037L21.687 6.76646L22.1508 7.25137L21.5889 7.43471L21.9538 7.95354L21.4945 8.03421L21.7952 8.60437L21.2791 8.59704L21.5403 9.02421L20.9711 8.95638L21.1068 9.57238L20.6778 9.19563L20.532 9.94179L20.2368 9.40554L20.0764 10.0747L19.7125 9.58246L19.7226 10.2837L19.3202 9.65304C19.4036 10.0115 19.3871 10.402 19.6218 10.7393C20.3496 10.6412 20.8244 10.4579 21.3827 9.92162C21.8887 9.43304 22.4955 8.41462 22.6605 7.76746C22.8475 7.03229 22.853 5.67654 22.6688 4.92487C22.4909 4.20346 22.2599 3.85879 21.8474 3.26846C21.4533 2.85138 21.0655 2.40771 20.565 2.10979C19.8289 1.66979 18.8884 1.55246 18.0515 1.56346C17.6913 1.56438 17.3356 1.63129 16.9992 1.76054C16.5161 1.93563 16.1283 2.32063 15.6361 2.51038C15.4757 2.57179 15.3473 2.57271 15.2199 2.50671C15.3437 2.75421 15.4775 2.86513 15.7873 2.95496C16.011 3.02004 16.5436 2.97879 16.9121 2.94488C17.3063 2.90913 17.5116 2.79179 18.0478 2.79821C18.5703 2.80738 18.9865 3.00446 19.2138 3.13554C19.6823 3.40321 20.0178 3.69838 20.3102 4.17046C20.4706 4.42896 20.5833 4.72137 20.6613 5.01837C20.7401 5.31537 20.7749 5.64904 20.7804 5.94054C20.7859 6.23204 20.763 6.49237 20.6915 6.75454C20.5247 7.36779 20.1571 7.99204 19.4018 7.89579C18.9398 7.83804 18.244 6.96996 18.0103 6.65187C17.5382 6.00929 17.0542 5.29796 16.4629 4.76446C16.0898 4.42896 15.6196 4.21996 15.1218 4.16863C14.2125 4.08613 13.9421 4.25846 13.2583 4.82404C13.3967 4.86712 13.5323 4.89187 13.6753 4.95696C13.9925 5.09996 14.2822 5.28421 14.5352 5.52071C14.801 5.76821 14.9202 5.92587 14.9293 6.28062C14.9358 6.51804 14.7423 6.70687 14.5636 6.87554C14.4554 6.98004 14.3115 7.07537 14.2226 7.15696C14.1062 7.26421 13.9613 7.38246 14.1089 7.55296C14.1639 7.61712 14.2602 7.66571 14.3399 7.72621C14.4692 7.82062 14.4087 8.17354 14.2409 8.26887C14.0338 8.39354 13.7707 8.37062 13.5873 8.21296C13.8128 8.18087 13.9558 8.15062 13.9494 7.96546C13.9476 7.86004 13.8128 7.77021 13.6772 7.70971C13.3563 7.56304 13.1143 7.58596 12.7944 7.35496C12.4708 7.12212 12.4653 6.99471 12.3773 6.63079C12.2215 6.64637 12.0776 6.65004 11.8686 6.71971C11.6614 6.78754 11.4304 6.95254 11.2416 6.99379C10.7649 7.09554 10.6705 7.06529 10.4102 6.99929C9.95093 6.87829 9.3551 7.08179 8.76018 7.27337C8.6621 7.30362 8.26243 7.27337 7.99385 7.36687C7.50985 7.55846 7.05976 7.82154 6.65826 8.14879C6.1486 8.57871 5.47943 9.86204 5.10176 11.336C5.06051 11.7852 5.18885 12.0859 4.90651 12.305C4.62418 12.525 4.63151 13.085 4.53526 13.2427C4.44085 13.3985 4.32901 13.3289 4.12276 13.5507C3.91835 13.7707 3.81385 13.735 3.81843 14.1502C3.99718 14.0356 4.25568 13.9 4.48301 13.889C4.6856 13.8835 4.68651 14.1484 5.2026 13.6387C5.47851 13.3646 6.01018 13.3555 6.37868 13.2363C6.74718 13.1171 7.40993 12.8678 8.07543 12.1253C8.7391 11.3828 9.05718 10.6 9.18643 9.47063C9.20476 9.66771 9.24143 9.89504 9.15618 10.4469C9.0691 11.0005 8.88485 11.6202 9.27443 12.3664L9.51735 12.8284C9.37343 12.6313 9.0911 12.3095 9.00401 12.0804L8.8106 11.5505C8.3706 12.2408 8.26976 12.3636 7.66018 12.8568C7.63635 13.163 7.62993 13.482 7.72985 13.7753C7.82885 14.0686 7.67118 14.406 7.74818 14.6003C7.82335 14.7919 7.99843 14.6828 8.05618 14.878C8.11393 15.0733 8.02685 15.4601 8.11485 15.6499C8.2056 15.8396 8.42376 15.725 8.5301 15.7874C8.63551 15.8479 8.67126 15.9322 8.72718 16.0129C8.78493 16.0935 8.7061 16.2851 8.8216 16.3475C8.9371 16.408 9.11493 16.3566 9.23685 16.4153C9.35601 16.4758 9.37343 16.6197 9.34593 16.7462C9.3166 16.8755 9.18826 16.9341 9.13235 17.0652C9.07551 17.1743 9.08193 17.3054 9.15068 17.4071C9.21851 17.5272 9.36701 17.5914 9.51735 17.6546C9.66585 17.7133 9.87576 17.6794 10.0298 17.7637C10.1847 17.8462 10.3231 18.014 10.4038 18.1359C10.4853 18.256 10.5073 18.3421 10.5037 18.4686C10.4908 18.6098 10.4496 18.7445 10.3781 18.8665C10.3103 18.9902 10.1618 19.1405 10.3964 19.3752C10.6293 19.608 10.6219 19.5081 10.7567 19.6621C10.7411 19.3972 10.6329 19.1845 10.7118 18.9856C10.7924 18.7867 11.0317 18.751 11.1554 18.663C11.2828 18.5713 11.3562 18.4503 11.4543 18.344C11.4543 18.4796 11.468 18.6272 11.4524 18.729C11.4222 18.937 11.3589 19.125 11.6697 19.157C11.8099 19.1717 11.9438 19.0819 12.0904 19.0278C12.0134 19.1635 11.8796 19.2753 11.8585 19.4412C11.8328 19.62 11.875 19.8033 11.9777 19.9536C12.0913 20.1186 12.2903 20.2405 12.4351 20.335C12.5799 20.4312 12.6588 20.4404 12.7697 20.4945C12.7752 20.6558 12.7422 20.8272 12.7614 20.9812C12.7788 21.1352 12.8283 21.269 12.9163 21.3965C13.0062 21.5257 13.1473 21.5972 13.2812 21.6898C13.2078 21.5175 13.0593 21.3552 13.0612 21.1755C13.063 20.9959 13.1162 20.8694 13.2922 20.708C13.4673 20.5485 13.8779 20.411 14.0713 20.2552C14.2143 20.1553 14.3271 20.0169 14.3968 19.8555C14.4655 19.7052 14.4472 19.4614 14.46 19.3275C14.5233 19.5155 14.5324 19.575 14.5544 19.773C14.5737 19.972 14.438 20.2506 14.3812 20.3964C14.5902 20.3001 14.7561 20.1278 14.8487 19.9151C14.9009 19.9472 14.8743 20.0297 14.8936 20.191C14.9798 20.1067 15.076 20.0425 15.1622 19.9619C15.2483 19.8812 15.3409 19.8115 15.3849 19.6988C15.4271 19.5879 15.4097 19.4678 15.3785 19.3385C15.3464 19.2075 15.2016 19.0571 15.1228 18.9141C15.0458 18.7748 15.1374 18.6345 15.1319 18.4631C14.9761 18.4365 14.8441 18.3559 14.6626 18.3825C14.4838 18.409 14.2776 18.6098 14.0933 18.6135C13.9109 18.6135 13.8055 18.4411 13.6552 18.3953C13.5039 18.3467 13.3527 18.354 13.2014 18.3311C13.393 18.1487 14.1373 18.0607 14.6461 17.9782C15.0916 17.903 15.5426 17.8636 15.9936 17.8563C16.1962 17.8508 16.4574 17.9186 16.5995 17.8792C16.7388 17.838 16.7086 17.7417 16.7498 17.6372C16.8681 17.3457 16.8103 17.0835 16.7462 16.7902C16.3392 16.7416 15.9138 16.6848 15.5032 16.715C15.1017 16.7453 14.6268 16.9369 14.2116 16.9497C13.8523 16.9625 13.3169 16.8819 13.0089 16.6921C12.6303 16.463 12.3388 15.9689 12.2343 15.8075C12.0657 15.55 11.853 15.0412 11.7219 14.8102C11.5927 14.5774 11.5633 14.5132 11.4561 14.416C11.3479 14.3198 11.2013 14.3125 11.072 14.2602C11.2196 14.273 11.38 14.2281 11.5138 14.3033C11.7164 14.4197 11.9401 14.8973 12.0657 15.1072C12.1986 14.6617 12.1674 14.4875 12.5506 14.2355C12.2426 14.5829 12.2334 14.846 12.1583 15.2539C12.4158 15.6746 12.7724 16.3475 13.2399 16.5335C13.4104 16.6014 13.7001 16.6426 13.8825 16.6665C14.4518 16.7361 15.0008 16.5574 15.5582 16.419C15.9661 16.3172 16.3804 16.3585 16.8763 16.3869C17.0441 16.3979 17.441 16.2952 17.5244 16.1275C17.5721 16.0294 17.5629 15.9148 17.5024 15.825C17.4383 15.7287 17.2687 15.6801 17.177 15.5921C17.0863 15.5023 17.034 15.3987 16.9616 15.3043C16.6408 15.3666 16.3163 15.4005 15.9881 15.4097C16.1907 15.3272 16.385 15.2805 16.5931 15.1989C16.8103 15.109 17.0175 14.9981 17.2128 14.8698C17.3833 14.757 17.4905 14.6929 17.6143 14.5636C17.7371 14.4325 17.8938 14.2987 17.9846 14.1392C18.0753 13.9797 18.0891 13.801 18.0946 13.6039C18.0983 13.4068 18.09 13.1309 18.0139 12.9705C17.9369 12.8128 17.7912 12.7642 17.6729 12.7285C17.5565 12.6909 17.4749 12.7862 17.353 12.7981C17.2302 12.811 17.1165 12.8861 16.9387 12.8036C16.7113 12.6854 16.5161 12.5121 16.3731 12.3004C16.1934 12.0492 16.066 11.6376 15.8836 11.3214C15.5692 10.775 15.1768 10.2681 14.8028 9.76121C14.7708 9.63746 14.7258 9.46421 14.7093 9.29554C14.6809 9.00038 14.6773 8.69421 14.7689 8.40729C14.8377 8.18729 14.9413 7.95446 15.1704 7.86462C15.2621 7.82521 15.3648 7.81787 15.461 7.84446C15.5435 7.87379 15.6251 7.96821 15.5912 8.07546C15.5554 8.19371 15.4748 8.19829 15.4188 8.25696C15.3354 8.34037 15.2786 8.44487 15.2511 8.55946C15.3528 8.55579 15.4913 8.54937 15.5756 8.57137C15.6856 8.59887 15.7855 8.67221 15.8423 8.82712C15.7113 8.71162 15.6471 8.65754 15.4848 8.65479C15.4088 8.65296 15.318 8.67863 15.2364 8.69238C15.2053 8.79138 15.1869 8.91512 15.1438 8.99396C15.0989 9.07096 15.0146 9.05171 14.9825 9.14154C14.9523 9.25888 14.9468 9.38079 14.9642 9.49996H14.9678V9.50088ZM16.1063 9.36429C16.1577 9.38354 16.1751 9.38904 16.2402 9.43762C16.3034 9.48529 16.3914 9.53296 16.4418 9.64754C16.4822 9.76579 16.495 9.89137 16.4785 10.0142C16.4345 10.0005 16.3749 10.0096 16.3291 9.97112C16.2833 9.93171 16.2567 9.84279 16.198 9.80613C16.1384 9.76671 16.0908 9.77496 16.0257 9.76671C16.0605 9.85471 16.0715 9.94912 16.0587 10.0426C16.0257 10.2287 15.9157 10.324 15.736 10.3451C15.659 10.3561 15.5353 10.3305 15.4683 10.3185C15.4995 10.3873 15.5518 10.4496 15.5838 10.5193C15.7342 10.4982 15.8451 10.501 15.9276 10.4634C16.0083 10.4258 16.0953 10.3396 16.1989 10.3048C16.3025 10.269 16.3951 10.269 16.5088 10.2507C16.4189 10.3277 16.3603 10.4038 16.2713 10.4826L16.4675 11.0537C16.6068 11.1417 16.737 11.1875 16.9121 11.2948C17.0872 11.4011 17.2971 11.5945 17.5263 11.6981C17.7545 11.8017 17.8893 11.8604 18.1285 11.9044C18.3659 11.9502 18.5566 12.1445 18.7903 12.1757C19.0241 12.205 19.4641 12.2133 19.6447 12.195C19.8509 12.1757 20.1177 12.0703 20.1415 11.8448C19.9692 11.886 19.7061 11.8494 19.5741 11.5249C19.5154 11.381 19.5429 11.1151 19.4531 10.9465C19.3623 10.775 19.2368 10.721 19.0864 10.511C18.9361 10.3011 18.6913 9.97112 18.5548 9.69062C18.4173 9.40829 18.3824 9.09113 18.2678 8.83904C18.1505 8.58788 17.9754 8.38529 17.8379 8.19004C17.5409 7.76562 17.3017 7.47779 16.8113 7.26329C16.5748 7.16062 16.3062 7.13221 16.0559 7.06804C15.9523 7.11387 15.8103 7.16337 15.7855 7.28529C15.7663 7.42279 15.8048 7.56487 15.8955 7.67121C16.0413 7.82246 16.2576 7.98471 16.3419 8.22396C16.3978 8.37796 16.4116 8.89313 16.3648 9.03338C16.3153 9.18004 16.2017 9.26896 16.1063 9.36429ZM16.154 10.5844C16.1091 10.6238 16.0743 10.6641 16.0009 10.6962C15.9276 10.7292 15.8277 10.7375 15.7305 10.7613C15.8662 10.973 16.0101 11.1885 16.1403 11.4112C16.2713 11.633 16.3841 11.8787 16.5078 12.1125C16.5014 11.9777 16.5097 11.8356 16.4904 11.711C16.4712 11.5863 16.4143 11.4781 16.3575 11.2884C16.3025 11.0995 16.2338 10.8447 16.154 10.5844ZM12.4883 5.92129C12.469 6.12846 12.5057 6.45387 12.5469 6.66012C12.6001 6.90487 12.6487 7.03046 12.8476 7.17712C13.2106 7.44754 13.4416 7.40171 13.723 7.55846C13.8559 7.63271 14.0237 7.75737 14.0732 7.88754C14.1218 8.02137 14.0402 8.16346 13.9393 8.22029C14.1153 8.24687 14.3133 8.04704 14.2308 7.84446C14.1896 7.74454 13.9971 7.69779 13.9375 7.59604C13.8834 7.50254 13.8733 7.39071 13.9073 7.28896C13.9558 7.10379 14.3234 6.93329 14.4545 6.78846C14.6543 6.56112 14.7295 6.37321 14.6168 6.08262C14.4591 5.67471 13.8449 5.34562 13.4783 5.18521C13.3105 5.11187 13.2152 5.10821 13.085 5.06696C13.3527 5.22646 13.6359 5.35112 13.7725 5.70037C13.8853 5.99462 13.7863 6.10646 13.7918 6.36129C13.7936 6.48046 13.9494 6.54004 14.0191 6.61337C14.0778 6.67937 14.0741 6.72796 14.0264 6.81779C14.0228 6.74446 13.9852 6.67662 13.9247 6.63537C13.822 6.56204 13.7102 6.57762 13.6552 6.42912C13.5727 6.20179 13.7386 5.98546 13.5525 5.73062C13.415 5.53996 13.2289 5.32637 12.9796 5.32087C12.8668 5.31996 12.7559 5.33737 12.6496 5.37404L12.4818 5.17237L12.4773 5.16962C12.1363 4.85887 11.9025 4.60221 11.4258 4.38863C10.9473 4.17413 10.7108 4.14113 10.1618 4.15396C9.61451 4.16588 9.07093 4.21171 8.43568 4.75896C7.79951 5.30896 6.16143 7.40629 5.7636 7.67121C5.36851 7.93612 5.28051 8.02779 4.7846 8.02779C4.28868 8.02779 3.51318 7.32562 3.48293 6.44837C3.4536 5.57204 3.44168 5.25946 4.05035 4.20346C4.66085 3.14746 5.7636 2.82296 6.58401 2.71388C7.40443 2.60296 7.89668 2.89171 8.50168 2.89263C9.10668 2.89446 9.70618 2.79088 9.88401 2.30871C9.79693 2.36004 9.68143 2.41871 9.3551 2.40129C9.02968 2.38388 8.57685 2.00621 8.06993 1.75413C7.56118 1.50113 6.99743 1.47088 6.27143 1.45804C5.54726 1.44429 4.64251 1.49929 3.74601 1.98421C2.84951 2.46546 2.2381 2.97879 1.71743 3.92754C1.19676 4.87446 1.11976 5.64629 1.2041 6.79396C1.2866 7.93979 1.64135 8.79321 2.32151 9.63379C3.00351 10.4716 3.68368 10.8832 4.91018 11.0354L5.1696 9.89688L4.7076 10.5578L4.72043 9.82171L4.30335 10.3396L4.11818 9.63654L3.78176 10.2003L3.61401 9.41654L3.12268 9.81254L3.27851 9.16629L2.63043 9.23779L2.92743 8.78771L2.3371 8.79321L2.68085 8.19462L2.15835 8.11121L2.57451 7.56487L1.93468 7.37604L2.46451 6.86729L1.93926 6.43921L2.34993 6.12021L1.96493 5.60779L2.3756 5.13112L2.22251 4.50321L2.56993 4.20163L2.67351 3.48113L3.06401 3.28496L3.39951 2.72488L4.0201 2.65888L4.32626 2.15196L4.9496 2.18404L5.5381 1.86504L6.1486 2.00621L6.8416 1.79721L7.35676 1.91638L8.02685 2.01538L8.6731 2.53238L7.68218 2.18679L7.18351 2.42513L6.7701 2.17488L6.48593 2.36646L5.98176 2.41871L5.53168 2.39121L5.20351 2.79088L4.53251 2.79729L4.29418 3.33721L3.69835 3.54621L3.64243 4.16771L3.21435 4.50321L3.35643 5.08712L2.98793 5.69579L3.2721 6.22837L2.99251 6.71329L3.36285 6.95529L3.28035 7.73721L3.79643 7.86646L3.91101 8.44671L4.47293 8.38896L4.82218 8.78679L5.25301 8.36421C6.03951 7.97188 6.36401 7.75187 6.97818 7.08912C7.67393 6.33471 8.07451 5.63712 9.00218 5.12104C9.67043 4.74979 10.2131 4.61596 10.9629 4.74704C11.6651 4.86804 11.9016 5.29062 12.4204 5.73429C12.4763 5.63437 12.4846 5.60687 12.5753 5.53446C12.5478 5.66462 12.5029 5.79754 12.4901 5.92221L12.4883 5.92129Z" fill="black"/>
</g>
<defs>
<clipPath id="clip0_169_267583">
<rect width="22" height="22" fill="white" transform="translate(1 1)"/>
</clipPath>
</defs>
</svg>
