<svg width="24" height="24" viewBox="0 0 24 24" fill="none" xmlns="http://www.w3.org/2000/svg">
<g clip-path="url(#clip0_167_267567)">
<path d="M11.9616 1.5H12.0104C12.2602 1.619 12.5035 1.75118 12.7394 1.896C15.4539 3.457 18.1684 5.0185 20.8829 6.5805C20.9879 6.63656 21.0736 6.72287 21.129 6.82825C21.1844 6.93363 21.2068 7.05322 21.1934 7.1715C21.1874 10.4633 21.1934 13.7542 21.1896 17.0445C21.1543 17.2015 21.0583 17.3382 20.9226 17.4247C18.0361 19.0867 15.1494 20.7478 12.2624 22.4078C12.1924 22.4611 12.1081 22.4922 12.0202 22.4972C11.9324 22.5021 11.8451 22.4806 11.7696 22.4355C8.87961 20.7785 5.99236 19.1185 3.10786 17.4555C3.01411 17.4112 2.93559 17.3401 2.8822 17.2512C2.82881 17.1623 2.80295 17.0596 2.80786 16.956C2.80786 13.665 2.80786 10.3742 2.80786 7.08375C2.80079 6.98062 2.82462 6.87773 2.87633 6.78822C2.92803 6.69871 3.00524 6.62665 3.09811 6.58125C5.80911 5.02225 8.52011 3.46225 11.2311 1.90125C11.4726 1.76325 11.7096 1.617 11.9616 1.5Z" fill="#019639"/>
<path d="M6.57452 7.90368C6.57452 10.6182 6.57452 13.3329 6.57452 16.0479C6.57106 16.1983 6.59759 16.3478 6.65258 16.4878C6.70757 16.6278 6.7899 16.7554 6.89477 16.8632C7.09578 17.0617 7.3588 17.1854 7.63996 17.2135C7.92111 17.2416 8.20341 17.1725 8.43977 17.0177C8.59798 16.9102 8.7275 16.7656 8.81705 16.5966C8.90659 16.4276 8.95344 16.2392 8.95352 16.0479C8.95352 14.0829 8.94977 12.1179 8.95352 10.1529C10.745 12.2979 12.5403 14.4399 14.3393 16.5789C14.5892 16.8321 14.8987 17.0185 15.2394 17.121C15.5801 17.2235 15.9411 17.2387 16.2893 17.1654C16.5351 17.117 16.7589 16.991 16.9278 16.8059C17.0967 16.6208 17.2017 16.3864 17.2275 16.1372C17.2315 13.3667 17.2315 10.5964 17.2275 7.82643C17.2017 7.53074 17.066 7.25548 16.8472 7.05494C16.6284 6.85441 16.3423 6.74316 16.0455 6.74316C15.7487 6.74316 15.4627 6.85441 15.2439 7.05494C15.0251 7.25548 14.8893 7.53074 14.8635 7.82643C14.8635 9.82293 14.8515 11.8172 14.8635 13.8129C13.104 11.7384 11.3663 9.64593 9.61352 7.56393C9.38244 7.26762 9.07652 7.0383 8.72729 6.89961C8.37807 6.76092 7.99817 6.71788 7.62677 6.77492C7.34542 6.80624 7.08459 6.93731 6.89156 7.14438C6.69852 7.35145 6.58605 7.62082 6.57452 7.90368Z" fill="white"/>
</g>
<defs>
<clipPath id="clip0_167_267567">
<rect width="24" height="24" fill="white"/>
</clipPath>
</defs>
</svg>
