<svg width="24" height="24" viewBox="0 0 24 24" fill="none" xmlns="http://www.w3.org/2000/svg">
<path d="M19.4571 8.50055C19.336 8.59956 17.1976 9.86909 17.1976 12.692C17.1976 15.9571 19.9186 17.1122 20 17.1408C19.9875 17.2112 19.5677 18.7228 18.5654 20.2629C17.6717 21.6183 16.7382 22.9714 15.3183 22.9714C13.8983 22.9714 13.5329 22.1023 11.8936 22.1023C10.2962 22.1023 9.72817 23 8.42931 23C7.13045 23 6.22417 21.7459 5.18216 20.2057C3.97519 18.3971 3 15.5875 3 12.9208C3 8.64356 5.63948 6.37514 8.23719 6.37514C9.61749 6.37514 10.7681 7.33003 11.6347 7.33003C12.4595 7.33003 13.7459 6.31793 15.3162 6.31793C15.9113 6.31793 18.0496 6.37514 19.4571 8.50055ZM14.5707 4.50715C15.2201 3.69527 15.6795 2.56876 15.6795 1.44224C15.6795 1.28603 15.667 1.12761 15.6398 1C14.5832 1.0418 13.3261 1.74147 12.5681 2.66777C11.973 3.38064 11.4175 4.50715 11.4175 5.64906C11.4175 5.82068 11.4447 5.9923 11.4572 6.0473C11.524 6.06051 11.6326 6.07591 11.7412 6.07591C12.6892 6.07591 13.8816 5.40704 14.5707 4.50715Z" fill="black"/>
</svg>
