<svg width="24" height="24" viewBox="0 0 24 24" fill="none" xmlns="http://www.w3.org/2000/svg">
<path fill-rule="evenodd" clip-rule="evenodd" d="M10.087 4.00343C7.61371 4.00257 5.1403 3.99504 2.66698 4.00547C1.1966 4.01149 0.78204 4.5028 1.09901 5.95491C2.02724 10.2076 2.97632 14.456 3.9382 18.7013C4.24237 20.0431 4.94123 20.5928 6.35282 20.597C11.2995 20.6117 16.2463 20.6133 21.1929 20.5964C22.8098 20.5907 23.2351 20.043 22.8867 18.5107C21.942 14.3492 20.9908 10.1892 20.0334 6.03057C19.6685 4.44583 19.1201 4.01074 17.5073 4.00612C15.0339 3.99913 12.5604 4.00429 10.087 4.00343Z" fill="#E0EAF5"/>
<path fill-rule="evenodd" clip-rule="evenodd" d="M13.8237 20.103C16.2974 20.1021 18.7711 20.1135 21.2446 20.0973C22.499 20.0891 22.7271 19.7931 22.4447 18.5663C21.4874 14.4056 20.4994 10.2518 19.5634 6.08641C19.3124 4.96922 18.771 4.47544 17.5741 4.48651C12.6272 4.53241 7.67953 4.50124 2.73237 4.50629C1.49169 4.50747 1.28338 4.77285 1.56188 6.03116C2.46614 10.1163 3.3761 14.2003 4.30207 18.2806C4.6486 19.8076 5.04779 20.099 6.65435 20.1025C9.04415 20.1076 11.4341 20.1038 13.8237 20.103Z" fill="#2671BE"/>
<path fill-rule="evenodd" clip-rule="evenodd" d="M11.7184 11.9487C11.8843 11.7542 12.0663 11.5302 12.2592 11.3161C13.3526 10.1015 14.4364 8.87791 15.5492 7.68151C16.0585 7.13398 16.2208 6.60226 15.6092 6.06183C15.0048 5.52764 14.411 5.57493 13.8566 6.18952C12.3126 7.90056 10.7704 9.61353 9.20082 11.301C8.61482 11.9313 8.75132 12.3598 9.39676 12.8269C11.8742 14.62 14.3376 16.4326 16.7983 18.2487C17.3514 18.657 17.8787 18.7592 18.3256 18.1561C18.8185 17.4909 18.3624 17.0952 17.8511 16.7228C16.0225 15.3909 14.1974 14.054 12.3802 12.7066C12.1271 12.5189 11.7637 12.4095 11.7184 11.9487Z" fill="#FDFDFE"/>
<path fill-rule="evenodd" clip-rule="evenodd" d="M10.9374 18.3837C11.6034 18.3837 12.2703 18.4066 12.9348 18.3764C13.4649 18.3525 13.7839 18.0562 13.7772 17.4979C13.7708 16.9699 13.5047 16.573 12.9751 16.5587C11.5195 16.5197 10.0618 16.528 8.60576 16.5565C8.14304 16.5655 7.80146 16.867 7.80426 17.3492C7.80759 17.9023 8.09865 18.3309 8.691 18.3665C9.43737 18.4117 10.1884 18.3777 10.9373 18.3777L10.9374 18.3837Z" fill="#FCFDFD"/>
</svg>
