<svg width="24" height="24" viewBox="0 0 24 24" fill="none" xmlns="http://www.w3.org/2000/svg">
<g clip-path="url(#clip0_167_267530)">
<path d="M11.9969 2.41504L20.2244 7.27504L20.2154 16.725L11.9999 21.585L3.77839 16.806L3.77539 7.22104L11.9969 2.41504Z" fill="white"/>
<path d="M12 1.5L2.99023 6.765V17.265L12 22.5L21 17.175L21.0097 6.825L12 1.5ZM20.2155 16.725L12 21.585L3.77848 16.806V7.221L12 2.415L20.2245 7.275L20.2155 16.725Z" fill="#171C1E"/>
<path d="M19.1765 10.2402L14.9593 12.7227L14.957 18.6672L19.1923 16.1735L19.1765 10.2402Z" fill="#1EA8FF"/>
<path d="M17.4623 9.22754L19.1776 10.2408L14.9603 12.7233L14.9581 18.6678L12.9961 17.5278L13.0118 11.9065L17.4623 9.22754Z" fill="#50BFFF"/>
<path d="M16.8846 7.7627L16.8861 8.86219L12.3088 11.6237L12.3141 17.6979L11.2491 18.3234L11.2461 11.1422L16.8846 7.7627Z" fill="#97FF27"/>
<path d="M15.0068 6.65332L16.8848 7.76257L11.2463 11.1421L11.2493 18.3233L9.14633 17.1008L9.14258 10.0598L15.0068 6.65332Z" fill="#C2FF72"/>
<path d="M14.419 4.9541V6.2801L8.40697 9.8051V17.3786L7.35547 17.9906L7.37572 9.20735L14.419 4.9541Z" fill="#FF274B"/>
<path d="M12.1197 3.58789L4.89723 7.79539L4.89648 16.5531L7.36998 17.9909L7.37598 9.20764L14.426 4.95439L12.1197 3.58789Z" fill="#FF5C77"/>
</g>
<defs>
<clipPath id="clip0_167_267530">
<rect width="24" height="24" fill="white"/>
</clipPath>
</defs>
</svg>
