<svg width="24" height="24" viewBox="0 0 24 24" fill="none" xmlns="http://www.w3.org/2000/svg">
<path d="M12.3284 1.00208C11.5697 0.984928 10.7859 1.0736 9.98331 1.27416C6.27163 2.2013 2.11685 6.9759 6.65358 12.4812L9.36141 15.7591L10.1258 16.692C10.6389 17.302 11.4784 17.2911 12.0952 16.7827C12.715 16.2717 12.8912 15.4337 12.3802 14.8133C12.3795 14.8125 12.1635 14.551 12.0692 14.4376H12.0822C11.8865 14.2022 11.844 14.1627 11.6417 13.9194C10.6617 12.7407 9.5428 11.38 9.5428 11.38C7.57295 8.98929 8.45189 6.03581 11.1235 4.35773C13.4773 2.87917 17.7969 3.40726 19.2858 5.83473C18.3481 3.067 15.6159 1.07642 12.3284 1.00208ZM12.8725 6.78053C12.5225 6.76861 12.1571 6.90205 11.849 7.15625C11.2281 7.66776 11.0535 8.5068 11.564 9.12559C11.565 9.12714 11.6267 9.20384 11.7324 9.33289C12.9067 10.7437 14.4661 12.6367 14.4661 12.6367C16.4365 15.0274 15.557 17.9679 12.8855 19.646C10.5321 21.124 6.21203 20.5949 4.72311 18.169C5.87725 21.5739 9.74543 23.7997 14.0256 22.7295C17.7383 21.8008 21.8921 17.0397 17.3554 11.5354L14.1811 7.70041L13.8183 7.24695C13.5618 6.94196 13.2225 6.79245 12.8725 6.78053Z" fill="#007CC2"/>
</svg>
