<svg width="24" height="24" viewBox="0 0 24 24" fill="none" xmlns="http://www.w3.org/2000/svg">
<path d="M19.4479 18.6728H20C20 20.2883 19.7393 21.4642 19.2178 22.2004C18.6963 22.9366 18.0368 23.3047 17.2393 23.3047C16.5951 23.3047 15.9765 23.0644 15.3834 22.5838C14.7904 22.1033 14.2587 20.7996 13.7883 18.6728L12.4693 12.7219L7.89877 23.09H5L11.5644 8.94886C11.2168 7.11859 10.7975 5.76379 10.3067 4.88444C9.81595 4.0051 9.20757 3.56542 8.4816 3.56542C7.89877 3.56542 7.39264 3.78526 6.96319 4.22493C6.53374 4.66461 6.28834 5.35479 6.22699 6.29549H5.67485C5.70552 4.79242 6.00716 3.59099 6.57975 2.69119C7.15235 1.7914 7.8681 1.33639 8.72699 1.32616C9.27914 1.32616 9.80061 1.55111 10.2914 2.00101C10.7822 2.4509 11.2117 3.228 11.5798 4.3323C11.9479 5.43659 12.5153 7.71675 13.2822 11.1728L14.3712 16.0347C14.8108 18.0491 15.271 19.3936 15.7515 20.0685C16.2321 20.7433 16.8149 21.0859 17.5 21.0961C18.6452 21.0961 19.2945 20.2883 19.4479 18.6728Z" fill="black"/>
</svg>
